<svg width="24" height="24" viewBox="0 0 24 24" fill="none" xmlns="http://www.w3.org/2000/svg">
<circle cx="11.9978" cy="11.9995" r="11" fill="#830045"/>
<path d="M16.6741 9.15358C16.7553 9.24207 16.8183 9.34569 16.8594 9.45851C16.9005 9.57133 16.919 9.69114 16.9139 9.81112C16.9087 9.93109 16.8799 10.0489 16.8292 10.1577C16.7785 10.2666 16.7069 10.3644 16.6184 10.4455L11.1323 15.4744C10.9586 15.6337 10.7302 15.7197 10.4946 15.7146C10.259 15.7095 10.0344 15.6136 9.8678 15.447L7.12478 12.704C6.95333 12.5324 6.85706 12.2997 6.85715 12.0572C6.85723 11.8147 6.95367 11.5821 7.12523 11.4106C7.2968 11.2392 7.52945 11.1429 7.772 11.143C8.01454 11.1431 8.24712 11.2395 8.41857 11.4111L10.5426 13.5351L15.3831 9.09781C15.5618 8.93414 15.7981 8.84809 16.0402 8.85855C16.2822 8.86901 16.5103 8.97512 16.6741 9.15358Z" fill="white"/>
</svg>
