<svg width="24" height="24" viewBox="0 0 24 24" fill="none" xmlns="http://www.w3.org/2000/svg">
<circle cx="11.9978" cy="11.9995" r="11" fill="white"/>
<path d="M16.6741 9.1538C16.7553 9.24229 16.8183 9.3459 16.8594 9.45872C16.9005 9.57154 16.919 9.69136 16.9139 9.81133C16.9087 9.9313 16.8799 10.0491 16.8292 10.1579C16.7785 10.2668 16.7069 10.3646 16.6184 10.4458L11.1323 15.4746C10.9586 15.6339 10.7302 15.7199 10.4946 15.7148C10.259 15.7097 10.0344 15.6138 9.8678 15.4472L7.12478 12.7042C6.95333 12.5326 6.85706 12.3 6.85715 12.0574C6.85723 11.8149 6.95367 11.5823 7.12523 11.4108C7.2968 11.2394 7.52945 11.1431 7.772 11.1432C8.01454 11.1433 8.24712 11.2397 8.41857 11.4113L10.5426 13.5353L15.3831 9.09802C15.5618 8.93436 15.7981 8.84831 16.0402 8.85876C16.2822 8.86922 16.5103 8.97533 16.6741 9.1538Z" fill="#830045"/>
</svg>
