<svg width="107" height="32" viewBox="0 0 107 32" fill="none" xmlns="http://www.w3.org/2000/svg">
<g clip-path="url(#clip0_1_147)">
<path d="M5.05814 15.1732H0.826782V9.96367H5.17774V8.6411C5.17774 2.23292 8.09167 0 13.8396 0C15.3966 0 16.5941 0.248033 17.512 0.413663L17.0733 5.54016C16.4749 5.33323 15.8759 5.20932 14.7984 5.20932C12.9623 5.20932 12.2437 6.5323 12.2437 8.6411V9.96387H17.3527V15.1734H12.2435V31.5035H5.05794L5.05814 15.1732ZM21.1043 0.496272H28.2892V31.5031H21.1043V0.496272ZM34.4362 0.992544H41.6212V6.44969H34.4362V0.992544ZM34.4362 9.96367H41.6212V31.5031H34.4362V9.96367ZM63.2161 16.1236C61.8989 15.2971 60.5817 14.9249 58.8651 14.9249C55.7515 14.9249 53.3562 17.1575 53.3562 20.8784C53.3562 24.3101 56.151 26.5422 59.264 26.5422C60.9008 26.5422 62.5376 26.1703 63.7348 25.5086L63.8944 31.0488C62.098 31.6694 59.9428 31.9998 58.0267 31.9998C51.1607 31.9998 45.9319 27.8656 45.9319 20.7545C45.9319 13.602 51.1607 9.46781 58.0267 9.46781C60.1824 9.46781 62.0978 9.83975 63.7348 10.6667L63.2161 16.1236ZM66.8889 0.496272H74.0737V19.018H74.1534L80.1409 9.96367H88.0044L80.7796 19.8447L88.6035 31.5033H79.9013L74.1536 20.8371H74.0737V31.5033H66.8889V0.496272Z" fill="white"/>
<path d="M106.127 15.9169C105.328 15.6693 104.529 15.6693 103.691 15.6693C100.339 15.6693 98.4625 18.1911 98.4625 22.4081V31.5033H91.2776V9.96349H97.8239V13.9326H97.9038C99.1409 11.2041 100.937 9.46783 104.051 9.46783C104.889 9.46783 105.767 9.59154 106.486 9.71546L106.127 15.9169Z" fill="white"/>
</g>
<defs>
<clipPath id="clip0_1_147">
<rect width="105.68" height="32" fill="white" transform="translate(0.816284)"/>
</clipPath>
</defs>
</svg>
