<svg width="95" height="32" viewBox="0 0 95 32" fill="none" xmlns="http://www.w3.org/2000/svg">
<g clip-path="url(#clip0_1_150)">
<path fill-rule="evenodd" clip-rule="evenodd" d="M37.1732 23.7574L37.223 23.8071L37.7906 22.3072L43.8439 4.86826H52.3293L58.4364 22.6677L58.5897 21.8929L60.7608 4.71082L68.6786 4.76054L71.6285 14.8535L71.7321 14.7002L75.2498 4.8144L75.4569 4.76054L83.1178 4.8144L85.2391 26.1853L77.6321 26.1356L76.6999 16.9251H76.646L73.7996 25.9284C73.696 26.032 73.7499 26.293 73.4889 26.2392L69.6066 26.1895L67.1207 18.5824C66.9135 17.8574 66.7602 17.1323 66.4992 16.4611L65.3101 26.1397L46.9389 26.0859C48.8034 23.5005 49.5782 20.2895 49.1141 16.8257L50.3571 17.3933C50.5642 17.24 50.6678 16.9293 50.875 16.7221L50.9786 17.6005L51.5462 17.961L52.0102 17.0287C52.2671 17.5963 51.8031 18.5286 52.6317 18.8393C52.8389 18.6322 52.9963 18.3753 53.1496 18.1143C53.2532 18.4747 53.2035 18.889 53.2035 19.3034L53.9907 20.4966C54.5086 19.7716 54.405 18.5824 54.0943 17.7538C53.5267 16.4611 52.2298 15.736 50.8874 15.5289C50.3695 15.4791 49.8516 15.5827 49.3876 15.6822L50.4234 14.9571L50.2701 14.1823L50.8916 14.6463L51.6166 14.3895C51.6166 14.1326 51.4633 13.8218 51.4095 13.5608L52.1843 14.2859C52.5447 14.232 52.8555 14.232 53.1662 14.1326L52.9093 13.2004C53.1662 13.4572 53.3734 13.9254 53.6841 14.2362H54.7199C54.4092 13.2542 53.3734 12.5291 52.3914 12.4256C51.0449 12.2723 49.806 12.786 49.0271 13.8757C49.4911 12.6327 49.0271 11.079 48.1984 10.0473C47.3698 9.06538 46.0274 8.90794 44.7844 9.16896C44.6311 9.21868 44.3701 9.27254 44.2168 9.42584C44.5275 9.68273 44.9418 9.84017 45.3023 10.0473C45.7664 10.0473 46.1807 9.94375 46.6489 9.94375C46.4417 10.1509 46.131 10.2545 45.9238 10.4617C46.0771 10.6688 46.2843 11.0293 46.595 11.1329H47.5272L46.856 11.5969L47.1668 12.2681L48.2523 12.1645C48.0451 12.3717 47.7344 12.525 47.4775 12.6824C47.4775 13.2004 47.5811 13.6644 47.6847 14.1326C46.8063 12.6824 45.2526 12.0112 43.6492 12.2681C42.7169 12.525 41.6314 13.2501 41.4242 14.2859C41.8385 14.2859 42.199 14.1326 42.6133 14.0787L43.5953 13.2004C43.4917 13.5608 43.2348 13.8716 43.2348 14.2362L44.0635 14.29L44.9957 13.4614L44.5814 14.3397C44.7886 14.493 45.0454 14.493 45.3065 14.5469L46.2387 14.029L45.8244 14.7541L46.8602 15.5827C45.5136 15.1684 44.0138 15.6863 42.8246 16.3078C41.5319 17.2897 41.532 19.1003 41.9463 20.5505C42.2032 20.2356 42.4103 19.8876 42.5678 19.5147C42.5678 19.0506 42.5678 18.5327 42.6175 18.0645L43.0318 18.8393L43.8066 18.1681L43.8563 17.0287L44.1671 17.8035C44.4239 17.7538 44.6311 17.5963 44.8921 17.4928L45.1531 16.5605C45.2029 16.8216 45.2567 17.0246 45.3603 17.2856C46.0315 16.9251 46.8602 16.8713 47.6391 16.7677C48.1073 17.2317 47.9498 18.0604 47.9498 18.7357C47.5852 20.9109 46.3464 22.6677 44.8963 24.3747C44.2748 25.0459 43.6036 25.5638 42.9282 26.0817L29.4751 26.032V4.6611H37.1691L37.1732 23.7574ZM94.4082 26.293L94.201 26.3428L86.8011 26.293L86.7514 26.0859L86.7017 4.92213L86.7514 4.86826L94.3584 4.92213L94.4082 26.293ZM2.75937 4.45394L0.120117 25.9823H7.31281L8.55579 16.3036L11.6591 26.0817H15.6946L18.6446 16.7677L19.6266 25.9782H27.1839L25.0128 4.4498H17.1986L13.6271 14.6463L10.6771 4.4498H2.75937V4.45394ZM6.53802 3.57557H5.81295L5.75909 3.26482C5.60579 3.47199 5.29504 3.62529 4.77714 3.62529C3.94849 3.62529 3.1737 3.10738 3.1737 1.96799C3.1737 0.882452 3.8449 0.157383 4.93458 0.157383C5.70937 0.157383 6.33086 0.571709 6.4883 1.40036H5.45249C5.34891 1.13933 5.1956 0.986034 4.88486 0.986034C4.47053 0.986034 4.26337 1.3465 4.26337 1.96799C4.26337 2.43203 4.41667 2.84636 4.93458 2.84636C5.19146 2.84636 5.45249 2.69306 5.50221 2.43203H5.03816V1.76082H6.53802V3.57557ZM19.4733 0.778872H19.9912C20.2481 0.778872 20.4055 0.882452 20.4055 1.13933C20.4055 1.3465 20.2522 1.45008 19.8876 1.45008H19.4733V0.778872ZM19.8379 2.17515C20.3019 2.17515 20.4055 2.27873 20.4055 2.74277C20.4055 2.99966 20.4055 3.26068 20.4552 3.3104H21.5407V3.20682C21.3874 3.20682 21.4372 3.05352 21.4372 2.63919C21.4372 1.96799 21.23 1.8644 20.8695 1.76082C21.23 1.65724 21.4372 1.3465 21.4372 0.932171C21.4372 0.310683 21.0767 -6.10352e-05 19.9373 -6.10352e-05H18.3836V3.3104H19.4691V2.17101L19.8379 2.17515ZM32.8767 3.31454V0.00408247H35.5698V0.778872H33.9664V1.24292H35.3129V2.0177H33.9664V2.53561H35.6237V3.3104L32.8767 3.31454ZM49.023 2.27873H48.3518L48.7122 1.08962L49.023 2.27873ZM48.041 3.41812L48.1446 2.95408H49.2301L49.3337 3.41812H50.4192L49.2301 0.107664H48.1446L46.9555 3.41812H48.041ZM62.0618 0.00408247H65.1154V0.832734H64.1334V3.26482H63.0479V0.832734H62.0659L62.0618 0.00408247ZM77.1764 3.52171V0.211245H79.8653V0.986034H78.2619V1.45008H79.6085V2.22487H78.2619V2.74277H79.9192V3.51756L77.1764 3.52171ZM90.99 0.882453H91.5079C91.715 0.882453 91.9222 0.986034 91.9222 1.1932C91.9222 1.45008 91.7689 1.50394 91.4043 1.50394H90.99V0.882453ZM91.3007 2.22901C91.8186 2.22901 91.8683 2.38231 91.8683 2.79664C91.8683 3.10738 91.9181 3.31454 91.9181 3.41812H93.0575V3.31454C92.9042 3.31454 92.9042 3.16124 92.9042 2.69305C92.9042 2.07157 92.697 1.96799 92.3863 1.8644C92.7467 1.7111 92.9042 1.40036 92.9042 1.03575C92.9042 0.414264 92.5437 0.10352 91.454 0.10352H89.9003V3.41398H90.9858V2.22487L91.3007 2.22901ZM3.48444 29.4502C3.48444 29.0359 3.22756 28.779 2.86295 28.779C2.50249 28.779 2.24146 29.1933 2.24146 29.9681C2.24146 30.486 2.34505 31.0536 2.91267 31.0536C3.27314 31.0536 3.4803 30.7429 3.4803 30.3824H4.61969C4.51611 31.3644 3.8449 31.9859 2.96239 31.9859C1.77328 31.9859 1.09793 31.2111 1.09793 29.9142C1.09793 28.6215 1.87271 27.7929 2.80495 27.7929C3.89048 27.7929 4.46225 28.4144 4.56583 29.4502H3.48444ZM6.74518 28.7748C7.20923 28.7748 7.41639 29.3466 7.41639 29.9142C7.41639 30.5357 7.20923 31.0536 6.74518 31.0536C6.17756 31.0536 6.07397 30.3824 6.07397 29.9142C6.07397 29.3963 6.22728 28.7748 6.74518 28.7748ZM6.74518 27.7929C5.65965 27.7929 4.93458 28.6215 4.93458 29.8645C4.93458 31.2111 5.65965 31.9859 6.74518 31.9859C7.781 31.9859 8.55579 31.2608 8.55579 29.9142C8.55579 28.8287 7.98816 27.7929 6.74518 27.7929ZM11.4022 30.1214L11.3483 29.1892V27.9462H12.4339V31.8781H11.3483L10.1054 29.7568L10.1551 30.6352V31.8781H9.06955V27.9462H10.1551L11.4022 30.1214ZM12.8523 27.9462H13.9917L14.6132 30.5854L15.2347 27.9462H16.4238L15.1808 31.8781H14.0415L12.8523 27.9462ZM16.8879 31.8823V27.9503H19.6804V28.8329H18.0231V29.4543H19.4194V30.3327H18.0273V31.0039H19.7881V31.8823H16.8879ZM22.6304 30.1214L22.5766 29.1892V27.9462H23.6621V31.8781H22.5766L21.3336 29.7568L21.3833 30.6352V31.8781H20.2978V27.9462H21.3833L22.6304 30.1214ZM24.1344 27.9462H27.3413V28.982H26.3055V31.8823H25.1661V28.982H24.1303L24.1344 27.9462ZM27.8592 27.9462H28.9986V31.8781H27.8592V27.9462ZM31.3271 28.7748C31.845 28.7748 32.0522 29.3466 32.0522 29.9142C32.0522 30.5357 31.845 31.0536 31.3271 31.0536C30.8092 31.0536 30.6559 30.3824 30.6559 29.9142C30.6518 29.3963 30.8092 28.7748 31.3271 28.7748ZM31.3271 27.7929C30.2913 27.7929 29.5165 28.6215 29.5165 29.8645C29.5165 31.2111 30.2416 31.9859 31.3271 31.9859C32.3629 31.9859 33.1916 31.2608 33.1916 29.9142C33.1874 28.8287 32.5659 27.7929 31.3271 27.7929ZM35.9841 30.1214L35.9344 29.1892V27.9462H37.0199V31.8781H35.9841L34.7412 29.7568L34.7909 30.6352V31.8781H33.7053V27.9462H34.7412L35.9841 30.1214ZM40.7945 28.6215C40.9478 28.6215 41.0513 28.6754 41.1052 28.7748C41.2088 29.1353 41.0016 29.2389 40.7945 29.3963C40.5873 29.243 40.4837 29.0856 40.4837 28.9323C40.4837 28.6713 40.6411 28.6215 40.7945 28.6215ZM41.8303 31.8823H43.0194L42.2446 30.9501C42.5015 30.6932 42.6589 30.3286 42.8122 30.0178H41.9338C41.8303 30.1214 41.7805 30.225 41.6728 30.3286L41.3621 29.9681C41.7225 29.7609 41.9297 29.4502 41.9297 28.9862C41.9297 28.3149 41.4118 27.9503 40.7903 27.9503C40.2227 27.9503 39.6012 28.1575 39.6012 28.9323C39.6012 29.243 39.7545 29.4502 39.9119 29.6574C39.4479 29.9184 39.1869 30.3286 39.1869 30.9003C39.1869 31.6751 39.7545 31.9859 40.4298 31.9859C40.8442 31.9859 41.3082 31.7787 41.5692 31.5715L41.8303 31.8823ZM40.9519 30.8465C41.0555 30.9501 41.0058 30.9501 40.8483 30.9998C40.7986 31.1034 40.5914 31.1531 40.4878 31.1531C40.2807 31.1531 40.1771 31.0495 40.1771 30.7926C40.1771 30.5854 40.3304 30.4322 40.5376 30.3286L40.9519 30.8465ZM44.9874 27.9462H46.1268L46.6944 30.5854L47.3657 27.9462H48.505L47.2621 31.8781H46.1227L44.9874 27.9462ZM48.9732 27.9462H50.1126V31.8781H48.9732V27.9462ZM52.5944 29.0856C52.5944 28.9323 52.5447 28.8287 52.4411 28.7748C52.3914 28.7251 52.2878 28.7251 52.1843 28.7251C51.9232 28.7251 51.8197 28.8287 51.8197 28.9323C51.8197 29.5538 53.7877 29.1933 53.7877 30.6393C53.7877 31.5715 53.1165 31.9859 52.1843 31.9859C51.252 31.9859 50.6844 31.4182 50.6305 30.6932H51.7161C51.7161 30.8465 51.8197 30.9501 51.9232 31.0039C52.0268 31.0578 52.1304 31.1075 52.234 31.1075C52.5447 31.1075 52.698 31.0039 52.698 30.7968C52.698 30.1753 50.73 30.5896 50.73 29.0897C50.73 28.2611 51.3515 27.797 52.2298 27.797C53.1621 27.797 53.6261 28.3688 53.68 29.0897L52.5944 29.0856ZM54.3015 27.9462H55.4409V31.8781H54.3015V27.9462ZM55.9588 27.9462H59.1656V28.982H58.1298V31.8823H56.9904V28.982H55.9546L55.9588 27.9462ZM61.287 28.7748C61.8049 28.7748 61.9623 29.3466 61.9623 29.9142C61.9623 30.5357 61.8049 31.0536 61.287 31.0536C60.7691 31.0536 60.6158 30.3824 60.6158 29.9142C60.6158 29.3963 60.7691 28.7748 61.287 28.7748ZM61.287 27.7929C60.2015 27.7929 59.4764 28.6215 59.4764 29.8645C59.4764 31.2111 60.2015 31.9859 61.287 31.9859C62.3228 31.9859 63.0976 31.2608 63.0976 29.9142C63.0976 28.8287 62.53 27.7929 61.287 27.7929ZM64.7549 28.8287H65.2728C65.5338 28.8287 65.7368 28.982 65.7368 29.243C65.7368 29.5538 65.5297 29.6574 65.1651 29.6574H64.7507L64.7549 28.8287ZM65.0656 30.5357C65.6333 30.5357 65.6871 30.689 65.6871 31.2069C65.6871 31.5674 65.741 31.8284 65.741 31.8781H66.8804V31.7746C66.7768 31.7746 66.7768 31.6213 66.7768 31.1034C66.7768 30.2747 66.5696 30.1711 66.205 30.0178C66.6194 29.9142 66.7768 29.4999 66.7768 29.0359C66.7768 28.2611 66.4163 27.9503 65.2231 27.9503H63.6196V31.8823H64.759V30.5357H65.0656ZM69.2047 29.0856C69.2047 28.9323 69.1012 28.8287 69.0514 28.7748C68.9479 28.7251 68.8443 28.7251 68.7407 28.7251C68.4797 28.7251 68.3761 28.8287 68.3761 28.9323C68.3761 29.5538 70.3939 29.1933 70.3939 30.6393C70.3939 31.5715 69.7227 31.9859 68.7407 31.9859C67.8085 31.9859 67.2408 31.4182 67.2408 30.6932H68.2767C68.3264 30.8465 68.3802 30.9501 68.4838 31.0039C68.5874 31.0578 68.691 31.1075 68.7946 31.1075C69.1053 31.1075 69.3125 31.0039 69.3125 30.7968C69.3125 30.1753 67.2947 30.5896 67.2947 29.0897C67.2947 28.2611 67.9162 27.797 68.7946 27.797C69.7765 27.797 70.1908 28.3688 70.2944 29.0897L69.2047 29.0856ZM73.9654 30.225C74.33 30.225 74.5868 30.2747 74.5868 30.5854C74.5868 30.8962 74.3797 30.9998 74.1228 30.9998H73.6049V30.225H73.9654ZM74.0192 28.8287C74.2761 28.8287 74.4833 28.8287 74.4833 29.1892C74.4833 29.3963 74.33 29.4999 74.0689 29.4999H73.6049V28.8287H74.0192ZM74.1725 31.8823C75.0509 31.8823 75.6724 31.5715 75.6724 30.6932C75.6724 30.2788 75.4652 29.9184 75.1047 29.8107C75.3119 29.6035 75.5191 29.3466 75.5191 28.9323C75.5191 28.1575 74.8976 27.9503 74.1228 27.9503H72.4696V31.8823H74.1725ZM76.1903 27.9462H77.3297V30.3286C77.3297 30.6932 77.4333 31.0536 77.9014 31.0536C78.3158 31.0536 78.4193 30.7429 78.4193 30.3286V27.9462H79.5587V30.1711C79.5587 31.4638 79.0408 31.9817 77.9056 31.9817C76.82 31.9817 76.1986 31.5177 76.1986 30.1711L76.1903 27.9462ZM81.3155 28.8287H81.8334C82.0903 28.8287 82.2974 28.982 82.2974 29.243C82.2974 29.5538 82.1441 29.6574 81.7795 29.6574H81.3155V28.8287ZM81.6759 30.5357C82.1938 30.5357 82.2974 30.689 82.2974 31.2069C82.2974 31.5674 82.2974 31.8284 82.3471 31.8781H83.4865V31.7746C83.3332 31.7746 83.3332 31.6213 83.3332 31.1034C83.3332 30.2747 83.1261 30.1711 82.7615 30.0178C83.1758 29.9142 83.3332 29.4999 83.3332 29.0359C83.3332 28.2611 82.9728 27.9503 81.8334 27.9503H80.1761V31.8823H81.3155V30.5357H81.6759ZM84.0044 31.8823V27.9503H86.8509V28.8329H85.1438V29.4543H86.594V30.3327H85.1438V31.0039H86.9047V31.8823H84.0044ZM89.3368 30.5357H88.6118L88.9722 29.1395L89.3368 30.5357ZM88.301 31.8823L88.4046 31.3644H89.544L89.6973 31.8823H90.7828L89.5398 27.9503H88.4004L87.1575 31.8823H88.301ZM91.1971 27.9462H92.3365V30.3286C92.3365 30.6932 92.3863 31.0536 92.8544 31.0536C93.2688 31.0536 93.4221 30.7429 93.4221 30.3286V27.9462H94.5615V30.1711C94.5615 31.4638 94.0436 31.9817 92.8544 31.9817C91.7689 31.9817 91.1971 31.5177 91.1971 30.1711V27.9462Z" fill="white"/>
</g>
<defs>
<clipPath id="clip0_1_150">
<rect width="94.6958" height="32" fill="white" transform="translate(0.120117)"/>
</clipPath>
</defs>
</svg>
