<svg width="80" height="80" viewBox="0 0 80 80" fill="none" xmlns="http://www.w3.org/2000/svg">
<rect opacity="0.2" width="80" height="80" rx="16" fill="#EADDE3"/>
<path d="M43.3333 46.6667C43.3333 49.6167 42.05 52.2834 40 54.1001C38.2333 55.7001 35.9 56.6667 33.3333 56.6667C27.8167 56.6667 23.3333 52.1834 23.3333 46.6667C23.3333 43.1552 25.1633 40.0603 27.9095 38.2815C28.1641 38.1166 28.4997 38.2353 28.6252 38.5115C30.1557 41.8823 33.1339 44.4166 36.7 45.3834C37.75 45.6834 38.85 45.8334 40 45.8334C40.9403 45.8334 41.8348 45.7301 42.7024 45.5427C42.9891 45.4807 43.2758 45.6658 43.3018 45.958C43.3228 46.1936 43.3333 46.4328 43.3333 46.6667Z" fill="white"/>
<path d="M50 33.3334C50 34.6334 49.75 35.8834 49.3 37.0167C48.15 39.9167 45.6833 42.15 42.6333 42.9834C41.8 43.2167 40.9167 43.3334 40 43.3334C39.0833 43.3334 38.2 43.2167 37.3667 42.9834C34.3167 42.15 31.85 39.9167 30.7 37.0167C30.25 35.8834 30 34.6334 30 33.3334C30 27.8167 34.4833 23.3334 40 23.3334C45.5167 23.3334 50 27.8167 50 33.3334Z" fill="white"/>
<path d="M56.6667 46.6667C56.6667 52.1834 52.1833 56.6667 46.6667 56.6667C45.2627 56.6667 43.9191 56.3771 42.7077 55.8493C42.3951 55.7131 42.3363 55.3055 42.5678 55.0552C44.6642 52.7884 45.8333 49.7998 45.8333 46.6667C45.8333 46.1001 45.7833 45.5334 45.7 45.0001L45.6752 44.846C45.6404 44.6302 45.7502 44.4178 45.9427 44.3143C48.3233 43.0351 50.2463 41.0049 51.3752 38.5123C51.5005 38.2357 51.8363 38.1168 52.0911 38.2819C54.837 40.0607 56.6667 43.1555 56.6667 46.6667Z" fill="white"/>
</svg>
