<svg width="148" height="28" viewBox="0 0 148 28" fill="none" xmlns="http://www.w3.org/2000/svg">
<path d="M12.7008 3.23519C13.1711 2.06413 14.8289 2.06413 15.2992 3.23519L17.2932 8.20083C17.4935 8.69951 17.9615 9.03956 18.4977 9.07591L23.8365 9.43791C25.0955 9.52328 25.6078 11.0999 24.6394 11.9091L20.533 15.34C20.1206 15.6846 19.9418 16.2348 20.0729 16.7559L21.3784 21.9453C21.6863 23.1691 20.3451 24.1435 19.2764 23.4725L14.7444 20.6273C14.2893 20.3416 13.7107 20.3416 13.2556 20.6273L8.72365 23.4725C7.65487 24.1435 6.31368 23.1691 6.62156 21.9453L7.92706 16.7559C8.05817 16.2348 7.87939 15.6846 7.467 15.34L3.36059 11.9091C2.39217 11.0999 2.90446 9.52328 4.16352 9.43791L9.50233 9.07591C10.0385 9.03956 10.5065 8.69951 10.7068 8.20083L12.7008 3.23519Z" fill="#FF9D00"/>
<path d="M42.7008 3.23519C43.1711 2.06413 44.8289 2.06413 45.2992 3.23519L47.2932 8.20083C47.4935 8.69951 47.9615 9.03956 48.4977 9.07591L53.8365 9.43791C55.0955 9.52328 55.6078 11.0999 54.6394 11.9091L50.533 15.34C50.1206 15.6846 49.9418 16.2348 50.0729 16.7559L51.3784 21.9453C51.6863 23.1691 50.3451 24.1435 49.2764 23.4725L44.7444 20.6273C44.2893 20.3416 43.7107 20.3416 43.2556 20.6273L38.7236 23.4725C37.6549 24.1435 36.3137 23.1691 36.6216 21.9453L37.9271 16.7559C38.0582 16.2348 37.8794 15.6846 37.467 15.34L33.3606 11.9091C32.3922 11.0999 32.9045 9.52328 34.1635 9.43791L39.5023 9.07591C40.0385 9.03956 40.5065 8.69951 40.7068 8.20083L42.7008 3.23519Z" fill="#FF9D00"/>
<path d="M72.7008 3.23519C73.1711 2.06413 74.8289 2.06413 75.2992 3.23519L77.2932 8.20083C77.4935 8.69951 77.9615 9.03956 78.4977 9.07591L83.8365 9.43791C85.0955 9.52328 85.6078 11.0999 84.6394 11.9091L80.533 15.34C80.1206 15.6846 79.9418 16.2348 80.0729 16.7559L81.3784 21.9453C81.6863 23.1691 80.3451 24.1435 79.2764 23.4725L74.7444 20.6273C74.2893 20.3416 73.7107 20.3416 73.2556 20.6273L68.7236 23.4725C67.6549 24.1435 66.3137 23.1691 66.6216 21.9453L67.9271 16.7559C68.0582 16.2348 67.8794 15.6846 67.467 15.34L63.3606 11.9091C62.3922 11.0999 62.9045 9.52328 64.1635 9.43791L69.5023 9.07591C70.0385 9.03956 70.5065 8.69951 70.7068 8.20083L72.7008 3.23519Z" fill="#FF9D00"/>
<path d="M102.701 3.23519C103.171 2.06413 104.829 2.06413 105.299 3.23519L107.293 8.20083C107.493 8.69951 107.962 9.03956 108.498 9.07591L113.836 9.43791C115.096 9.52328 115.608 11.0999 114.639 11.9091L110.533 15.34C110.121 15.6846 109.942 16.2348 110.073 16.7559L111.378 21.9453C111.686 23.1691 110.345 24.1435 109.276 23.4725L104.744 20.6273C104.289 20.3416 103.711 20.3416 103.256 20.6273L98.7236 23.4725C97.6549 24.1435 96.3137 23.1691 96.6216 21.9453L97.9271 16.7559C98.0582 16.2348 97.8794 15.6846 97.467 15.34L93.3606 11.9091C92.3922 11.0999 92.9045 9.52328 94.1635 9.43791L99.5023 9.07591C100.038 9.03956 100.507 8.69951 100.707 8.20083L102.701 3.23519Z" fill="#FF9D00"/>
<path d="M132.701 3.23519C133.171 2.06413 134.829 2.06413 135.299 3.23519L137.293 8.20083C137.493 8.69951 137.962 9.03956 138.498 9.07591L143.836 9.43791C145.096 9.52328 145.608 11.0999 144.639 11.9091L140.533 15.34C140.121 15.6846 139.942 16.2348 140.073 16.7559L141.378 21.9453C141.686 23.1691 140.345 24.1435 139.276 23.4725L134.744 20.6273C134.289 20.3416 133.711 20.3416 133.256 20.6273L128.724 23.4725C127.655 24.1435 126.314 23.1691 126.622 21.9453L127.927 16.7559C128.058 16.2348 127.879 15.6846 127.467 15.34L123.361 11.9091C122.392 11.0999 122.904 9.52328 124.164 9.43791L129.502 9.07591C130.038 9.03956 130.507 8.69951 130.707 8.20083L132.701 3.23519Z" fill="#FF9D00"/>
</svg>
