<svg width="181" height="20" viewBox="0 0 181 20" fill="none" xmlns="http://www.w3.org/2000/svg">
<path d="M139.544 0H123.121C122.145 0 121.332 0.813008 121.332 1.78862V18.2114C121.332 19.187 122.145 20 123.121 20H139.544C140.519 20 141.332 19.187 141.332 18.2114V1.84282C141.386 0.813008 140.573 0 139.544 0ZM127.511 17.3442C127.511 17.6152 127.294 17.8862 126.969 17.8862H124.747C124.476 17.8862 124.205 17.6694 124.205 17.3442V7.91328C124.205 7.64228 124.422 7.37127 124.747 7.37127H126.969C127.24 7.37127 127.511 7.58808 127.511 7.91328V17.3442ZM125.831 6.50407C124.639 6.50407 123.717 5.52846 123.717 4.39024C123.717 3.19783 124.693 2.27642 125.831 2.27642C127.023 2.27642 127.945 3.25203 127.945 4.39024C127.999 5.52846 127.023 6.50407 125.831 6.50407ZM139.273 17.3984C139.273 17.6694 139.056 17.8862 138.785 17.8862H136.346C136.075 17.8862 135.858 17.6694 135.858 17.3984V12.9539C135.858 12.3035 136.075 10.0813 134.124 10.0813C132.66 10.0813 132.335 11.5989 132.281 12.3035V17.3984C132.281 17.6694 132.064 17.8862 131.793 17.8862H129.462C129.191 17.8862 128.975 17.6694 128.975 17.3984V7.85908C128.975 7.58808 129.191 7.37127 129.462 7.37127H131.793C132.064 7.37127 132.281 7.58808 132.281 7.85908V8.67209C132.823 7.85908 133.636 7.20867 135.37 7.20867C139.218 7.20867 139.218 10.8401 139.218 12.7913L139.273 17.3984Z" fill="#575D65" fill-opacity="0.5"/>
<path d="M174.384 14.4758C173.179 14.3754 172.676 13.7727 171.722 13.2203C171.22 15.9824 170.567 18.5938 168.659 20C168.056 15.8317 169.512 12.7181 170.216 9.4036C169.06 7.49525 170.366 3.5781 172.777 4.53227C175.74 5.68733 170.216 11.7137 173.932 12.467C177.799 13.2705 179.406 5.73755 176.995 3.27678C173.53 -0.238618 166.851 3.17633 167.654 8.24854C167.855 9.50404 169.111 9.85558 168.157 11.5631C165.947 11.0609 165.244 9.30316 165.344 6.94282C165.495 3.12611 168.809 0.414236 172.124 0.062697C176.342 -0.389282 180.26 1.61952 180.812 5.53667C181.415 10.0062 178.904 14.8273 174.384 14.4758Z" fill="#575D65" fill-opacity="0.5"/>
<path d="M14.0094 0H5.94339C2.6415 0 0 2.68868 0 5.9434V14.0566C0 17.3585 2.68867 20 5.94339 20H14.0094C17.3113 20 19.9528 17.3113 19.9528 14.0566V5.99056C19.9528 2.68868 17.3113 0 14.0094 0ZM9.95283 15.1887C7.07547 15.1887 4.76415 12.8774 4.76415 10C4.76415 7.12264 7.07547 4.81132 9.95283 4.81132C12.8302 4.81132 15.1415 7.12264 15.1415 10C15.1415 12.8774 12.8302 15.1887 9.95283 15.1887ZM15.1415 6.13207C14.434 6.13207 13.9151 5.56604 13.9151 4.90566C13.9151 4.19812 14.4811 3.67925 15.1415 3.67925C15.8491 3.67925 16.3679 4.24529 16.3679 4.90566C16.4151 5.56604 15.8491 6.13207 15.1415 6.13207Z" fill="#830045"/>
<path d="M59.704 1H62.7708L56.0708 8.65773L63.9529 19.0782H57.7813L52.9474 12.7582L47.4164 19.0782H44.3478L51.5142 10.8874L43.9529 1H50.2811L54.6505 6.77667L59.704 1ZM58.6277 17.2426H60.327L49.3578 2.73921H47.5342L58.6277 17.2426Z" fill="#575D65" fill-opacity="0.5"/>
<path fill-rule="evenodd" clip-rule="evenodd" d="M94.1138 5.97701V4.36782C94.1138 3.58621 94.6195 3.4023 94.9874 3.4023C95.3552 3.4023 97.2402 3.4023 97.2402 3.4023V0H94.1598C90.7115 0 89.9299 2.57471 89.9299 4.18391V5.97701H87.9529V8.41379V9.97701H89.9759C89.9759 14.5287 89.9759 20 89.9759 20H93.9759C93.9759 20 93.9759 14.4828 93.9759 9.97701H96.9644L97.1023 8.41379L97.3322 5.97701H94.1138Z" fill="#575D65" fill-opacity="0.5"/>
</svg>
