<svg width="210" height="32" viewBox="0 0 210 32" fill="none" xmlns="http://www.w3.org/2000/svg">
<g clip-path="url(#clip0_1_153)">
<path d="M15.7074 21.6218H9.97745V14.3005H13.7009C14.4058 14.3005 15.006 14.2831 15.7109 14.2447C16.1785 14.2269 16.6359 14.1022 17.0478 13.8802C17.4597 13.6582 17.8154 13.3448 18.0874 12.964C18.3888 12.5667 18.5812 12.0976 18.6457 11.6031C18.7085 11.1703 18.7155 10.8004 18.6736 10.3607C18.6004 9.57806 18.2365 8.85121 17.6539 8.32348C17.0713 7.79574 16.3121 7.50541 15.526 7.50971H9.97745V31.2462H0.496094V0H15.9901C16.6078 0 17.1277 0.0104689 17.7454 0.0453653C21.8597 0.265213 25.2481 2.55093 26.9894 6.28135C27.8791 8.12613 28.2195 10.1879 27.97 12.2207C27.7596 14.3738 26.8662 16.4032 25.4203 18.0123C23.9744 19.6214 22.0518 20.726 19.9334 21.1647C18.5478 21.4769 17.1312 21.6302 15.7109 21.6218" fill="white"/>
<path d="M50.9144 29.4979C50.7888 27.6589 50.719 26.1025 50.6806 24.2565C50.6317 21.8312 50.6038 19.7897 50.5864 17.3644C50.5864 16.1227 50.4245 14.8862 50.1048 13.6864C49.913 12.8916 49.556 12.1462 49.0569 11.4987C48.5579 10.8511 47.928 10.3159 47.2084 9.92801C46.3533 9.44411 45.4279 9.09677 44.4655 8.89857C41.4073 8.21135 38.2418 8.14844 35.1587 8.71362C34.2514 8.87065 33.4941 9.0905 32.6392 9.44644C31.6901 9.82135 30.839 10.4079 30.1508 11.1614C29.4627 11.9148 28.9555 12.8154 28.6679 13.7945C28.4296 14.5375 28.3569 15.3236 28.4551 16.0977C28.469 16.2443 28.5074 16.3699 28.5737 16.506L36.0869 16.6909C36.0638 16.2375 36.1327 15.7841 36.2893 15.3579C36.4017 15.0289 36.5877 14.7299 36.8333 14.4837C37.0788 14.2376 37.3774 14.0508 37.7061 13.9376C38.6682 13.5686 39.7294 13.5501 40.7037 13.8853C41.0265 13.9852 41.3197 14.1633 41.5571 14.4038C41.7945 14.6442 41.9689 14.9396 42.0647 15.2637C42.1903 15.6824 42.1275 16.1012 41.8727 16.4606C41.6633 16.7678 41.3632 17.0021 41.0143 17.1306C40.791 17.2179 40.5955 17.2772 40.3687 17.34C39.3804 17.6095 38.3786 17.8273 37.3676 17.9926C36.5231 18.1322 35.8112 18.2613 34.9737 18.4323C33.8957 18.6437 32.8317 18.921 31.7877 19.2628C30.8241 19.5638 29.9412 20.0792 29.2053 20.7703C28.2192 21.6462 27.5843 22.8502 27.4187 24.1588C27.2895 25.0696 27.3209 25.8617 27.5233 26.7585C27.7576 27.8757 28.2951 28.9068 29.0769 29.7384C29.8587 30.5701 30.8546 31.1703 31.9552 31.4731C34.3844 32.2167 36.9975 32.0845 39.3393 31.0997C40.4834 30.6546 41.4914 29.9184 42.2636 28.964L41.7332 25.1254C41.3795 25.6903 40.8604 26.1326 40.2466 26.3921C39.6533 26.6539 39.1124 26.7934 38.4669 26.8597C37.926 26.9121 37.4583 26.8737 36.9349 26.7271C36.5285 26.622 36.1613 26.4014 35.8775 26.092C35.6285 25.8321 35.459 25.5064 35.389 25.1533C35.3295 24.8842 35.3455 24.6039 35.4355 24.3434C35.5254 24.0828 35.6856 23.8523 35.8985 23.6772C36.1752 23.436 36.4948 23.2489 36.8407 23.1258C37.667 22.8202 38.5051 22.5478 39.3532 22.3093C40.4315 22.0057 41.3214 21.6776 42.3438 21.2065C42.4416 22.0231 42.4381 22.721 42.3229 23.5341C42.2426 24.1309 42.0577 24.6229 41.7332 25.1254L42.2636 28.964C42.4276 29.5084 42.5776 29.962 42.7661 30.4994C42.8708 30.7961 43.0104 31.0264 43.2197 31.2602H51.4902C51.1477 30.7344 50.9492 30.1279 50.9144 29.5014" fill="white"/>
<path d="M60.8075 11.2855C61.8435 10.366 63.0115 9.60732 64.2727 9.03468C66.3311 8.04649 68.6867 7.872 70.8682 8.54613C72.042 8.86946 73.1145 9.48535 73.9854 10.3361C74.8564 11.1869 75.4972 12.2448 75.8479 13.4107C76.2089 14.5179 76.388 15.6764 76.3783 16.841V31.2462H67.5146V18.2927C67.5146 17.86 67.4588 17.4901 67.3332 17.0783C67.2295 16.7206 67.0459 16.3912 66.7962 16.1149C66.5465 15.8386 66.2373 15.6227 65.8919 15.4835C65.1402 15.1599 64.2959 15.1232 63.5189 15.3804C62.742 15.6377 62.0864 16.171 61.6764 16.8794C61.3249 17.461 61.1435 18.1296 61.153 18.8092V31.2462H52.5685V8.9265H60.6191L60.8075 11.2855Z" fill="white"/>
<path d="M101.026 29.4979C100.9 27.6589 100.83 26.1025 100.792 24.2565C100.743 21.8312 100.715 19.7897 100.698 17.3644C100.698 16.1227 100.536 14.8862 100.216 13.6864C100.024 12.8916 99.6673 12.1462 99.1682 11.4987C98.6692 10.8511 98.0393 10.3159 97.3197 9.92801C96.4646 9.44411 95.5391 9.09677 94.5768 8.89857C91.5186 8.21135 88.3531 8.14844 85.2699 8.71362C84.3626 8.87065 83.6054 9.0905 82.7504 9.44644C81.8013 9.82135 80.9503 10.4079 80.2621 11.1614C79.5739 11.9148 79.0668 12.8154 78.7792 13.7945C78.5408 14.5375 78.4682 15.3236 78.5663 16.0977C78.5803 16.2443 78.6187 16.3699 78.685 16.506L86.1982 16.6909C86.1751 16.2375 86.2439 15.7841 86.4006 15.3579C86.513 15.0289 86.699 14.7299 86.9446 14.4837C87.1901 14.2376 87.4886 14.0508 87.8174 13.9376C88.7794 13.5686 89.8406 13.5501 90.815 13.8853C91.1378 13.9852 91.4309 14.1633 91.6684 14.4038C91.9058 14.6442 92.0801 14.9396 92.1759 15.2637C92.3016 15.6824 92.2388 16.1012 91.984 16.4606C91.7745 16.7678 91.4745 17.0021 91.1256 17.1306C90.9022 17.2179 90.7068 17.2772 90.48 17.34C89.4916 17.6095 88.4899 17.8273 87.4789 17.9926C86.6344 18.1322 85.9225 18.2613 85.085 18.4323C84.007 18.6437 82.943 18.921 81.8989 19.2628C80.9354 19.5638 80.0525 20.0792 79.3166 20.7703C78.3305 21.6462 77.6956 22.8502 77.5299 24.1588C77.4008 25.0696 77.4322 25.8617 77.6346 26.7585C77.8688 27.8757 78.4064 28.9068 79.1882 29.7384C79.97 30.5701 80.9659 31.1703 82.0665 31.4731C84.4957 32.2167 87.1087 32.0845 89.4505 31.0997C90.5946 30.6546 91.6027 29.9184 92.3749 28.964L91.8444 25.1254C91.4907 25.6903 90.9717 26.1326 90.3578 26.3921C89.7646 26.6539 89.2237 26.7934 88.5781 26.8597C88.0372 26.9121 87.5696 26.8737 87.0462 26.7271C86.6398 26.622 86.2726 26.4014 85.9888 26.092C85.7398 25.8321 85.5703 25.5064 85.5003 25.1533C85.4407 24.8842 85.4568 24.6039 85.5467 24.3434C85.6366 24.0828 85.7969 23.8523 86.0097 23.6772C86.2865 23.436 86.6061 23.2489 86.9519 23.1258C87.7782 22.8202 88.6164 22.5478 89.4645 22.3093C90.5428 22.0057 91.4326 21.6776 92.4551 21.2065C92.5528 22.0231 92.5493 22.721 92.4342 23.5341C92.3539 24.1309 92.169 24.6229 91.8444 25.1254L92.3749 28.964C92.5389 29.5084 92.6889 29.962 92.8774 30.4994C92.982 30.7961 93.1216 31.0264 93.331 31.2602H101.601C101.259 30.7344 101.06 30.1279 101.026 29.5014" fill="white"/>
<path d="M113.414 23.0421C114.052 23.1503 114.586 23.2864 115.201 23.4888C115.447 23.5658 115.668 23.708 115.84 23.9003C116.012 24.0926 116.128 24.3278 116.178 24.581C116.241 24.8541 116.233 25.1388 116.154 25.4078C116.075 25.6768 115.928 25.9208 115.728 26.1165C115.331 26.5272 114.809 26.7938 114.244 26.8737C113.456 26.9993 112.758 26.9365 112.011 26.6643C111.663 26.5437 111.34 26.3604 111.058 26.1234C110.688 25.819 110.417 25.4106 110.28 24.9509C110.159 24.5663 110.102 24.1642 110.113 23.761H101.94V24.2355C101.94 25.0033 102.059 25.6558 102.327 26.3782C102.739 27.46 103.301 28.2975 104.149 29.0861C105.194 30.0824 106.472 30.8021 107.865 31.1799C110.735 32.0323 113.761 32.2232 116.715 31.7383C118.102 31.5385 119.444 31.1017 120.683 30.4471C121.233 30.1642 121.748 29.8188 122.218 29.4177C123.29 28.5443 124.07 27.3649 124.454 26.0369C124.838 24.7088 124.808 23.2953 124.368 21.9847C124.062 20.9933 123.478 20.1104 122.686 19.4408C121.621 18.4987 120.356 17.8103 118.987 17.4273L118.093 17.1725C116.434 16.705 114.746 16.346 113.04 16.0977C112.559 16.0279 112.154 15.9511 111.68 15.8395C111.472 15.7904 111.269 15.7202 111.076 15.6301C110.956 15.5765 110.848 15.4998 110.758 15.4045C110.668 15.3092 110.598 15.1971 110.551 15.0746C110.505 14.9521 110.483 14.8217 110.486 14.6906C110.49 14.5596 110.52 14.4306 110.573 14.311L110.612 14.2342C110.737 14.0035 110.908 13.8005 111.113 13.6374C111.319 13.4743 111.555 13.3544 111.809 13.2851C112.744 13.0164 113.602 13.0408 114.52 13.3479C114.943 13.4875 115.308 13.7623 115.559 14.13C115.81 14.4977 115.933 14.9378 115.909 15.3823H123.789C123.789 14.4629 123.626 13.5508 123.307 12.6883C123 11.8021 122.439 11.0256 121.695 10.455C121.062 9.94567 120.351 9.54046 119.591 9.25452C118.854 8.9644 118.089 8.75156 117.308 8.61941C115.459 8.2885 113.576 8.18304 111.7 8.30534C110.57 8.36815 109.617 8.50774 108.511 8.76597C107.024 9.11494 105.824 9.69073 104.623 10.6329C103.637 11.3861 102.899 12.4182 102.505 13.5956C102.029 15.0177 102.081 16.5639 102.652 17.9507C102.95 18.7339 103.41 19.4451 104.002 20.0376C104.595 20.63 105.306 21.0903 106.089 21.388C106.916 21.716 107.639 21.9324 108.511 22.1104C110.231 22.4663 111.687 22.742 113.417 23.0386M140.186 8.50076C139.304 8.36117 138.55 8.30185 137.656 8.30185C136.763 8.30185 136.013 8.36117 135.126 8.50076C132.667 8.85164 130.386 9.98319 128.618 11.7287C126.666 13.547 125.47 16.0337 125.268 18.694C125.107 20.3078 125.255 21.9374 125.704 23.4957C126.402 26.0153 127.721 27.9625 129.798 29.5503C131.088 30.5644 132.597 31.2644 134.205 31.5952C135.339 31.8494 136.498 31.9735 137.66 31.9651C138.881 31.9651 139.914 31.8604 141.111 31.5952C142.719 31.2643 144.228 30.5642 145.519 29.5503L140.724 24.3228C140.543 24.7255 140.284 25.0886 139.963 25.3913C139.641 25.694 139.263 25.9303 138.85 26.0869C138.437 26.2434 137.998 26.317 137.556 26.3035C137.115 26.2901 136.681 26.1897 136.278 26.0083C135.522 25.6812 134.92 25.0785 134.592 24.3228C134.279 23.6393 134.066 22.9141 133.961 22.1697C133.724 20.5993 133.751 19.2384 134.055 17.682C134.212 16.8759 134.484 16.2164 134.934 15.5254C135.231 15.0747 135.635 14.7048 136.11 14.4489C136.586 14.1929 137.117 14.0589 137.656 14.0589C138.196 14.0589 138.727 14.1929 139.202 14.4489C139.677 14.7048 140.081 15.0747 140.378 15.5254C140.816 16.1765 141.115 16.9105 141.258 17.682C141.561 19.2419 141.593 20.6028 141.355 22.1697C141.237 22.9548 141.048 23.6004 140.724 24.3228L145.519 29.5503C147.531 28.0559 148.973 25.9203 149.608 23.4957C150.066 21.8556 150.198 20.39 150.045 18.694C149.844 16.0336 148.647 13.5466 146.695 11.7287C144.927 9.98258 142.646 8.85092 140.186 8.50076Z" fill="white"/>
<path d="M159.526 11.2855C160.562 10.366 161.73 9.60732 162.991 9.03468C165.05 8.04649 167.405 7.872 169.587 8.54613C170.76 8.86946 171.833 9.48535 172.704 10.3361C173.575 11.1869 174.216 12.2448 174.566 13.4107C174.927 14.5179 175.107 15.6764 175.097 16.841V31.2462H166.233V18.2927C166.233 17.86 166.177 17.4901 166.052 17.0783C165.948 16.7206 165.764 16.3912 165.515 16.1149C165.265 15.8386 164.956 15.6227 164.61 15.4835C163.859 15.1599 163.014 15.1232 162.237 15.3804C161.461 15.6377 160.805 16.171 160.395 16.8794C160.043 17.461 159.862 18.1296 159.872 18.8092V31.2462H151.287V8.9265H159.338L159.526 11.2855Z" fill="white"/>
<path d="M176.814 0V5.89749H185.157V0H176.814ZM176.814 8.92999V31.2497H185.157V8.92999H176.814ZM207.571 28.3533C205.981 30.0734 203.879 31.2348 201.576 31.665C199.957 31.993 198.54 32.0628 196.897 31.8918C194.81 31.7053 192.82 30.9281 191.16 29.6515C189.783 28.6469 188.637 27.3595 187.799 25.8757C187.129 24.7398 186.682 23.4868 186.48 22.1836C186.166 20.2853 186.25 18.6172 186.749 16.7607C187.89 12.5383 191.062 9.54766 195.344 8.6578C197.786 8.1518 199.957 8.20414 202.375 8.82879C204.022 9.23363 205.535 10.0626 206.762 11.2332C207.548 11.9497 208.198 12.802 208.681 13.7492C209.281 14.8604 209.556 16.1182 209.473 17.3784H201.841C201.77 16.8903 201.603 16.4211 201.349 15.9982C201.095 15.5753 200.759 15.207 200.362 14.9147C199.856 14.5184 199.24 14.2888 198.598 14.2576C197.956 14.2263 197.32 14.395 196.778 14.7402C196.021 15.1945 195.461 15.9151 195.208 16.7607C194.555 18.7462 194.52 20.8833 195.11 22.8885C195.336 23.738 195.8 24.5054 196.446 25.101C196.805 25.4535 197.241 25.7163 197.72 25.8679C198.199 26.0196 198.707 26.0557 199.203 25.9734C199.829 25.8929 200.403 25.5848 200.815 25.108C201.258 24.6293 201.549 24.0309 201.653 23.3876C201.737 22.9165 201.782 22.5152 201.81 22.0371H209.854C209.949 23.192 209.794 24.3539 209.401 25.4438C209.007 26.5337 208.383 27.5261 207.571 28.3533Z" fill="white"/>
</g>
<defs>
<clipPath id="clip0_1_153">
<rect width="209.378" height="32" fill="white" transform="translate(0.496094)"/>
</clipPath>
</defs>
</svg>
