<svg width="211" height="48" viewBox="0 0 211 48" fill="none" xmlns="http://www.w3.org/2000/svg">
<g clip-path="url(#clip0_1_349)">
<path d="M7.98078 16.6747C7.82657 16.0578 7.86512 15.441 7.94223 15.094C8.135 14.1301 8.79042 13.0892 10.6796 13.0892C12.4531 13.0892 13.4555 14.1687 13.4555 15.8265C13.4555 16.3663 13.4555 17.6771 13.4555 17.6771H20.935V15.5566C20.935 9.04097 15.0362 8 10.7952 8C5.47476 8 1.11813 9.7735 0.308494 14.6699C0.0771692 16.0193 0.0386153 17.2145 0.385603 18.7181C1.69645 24.8482 12.376 26.6217 13.9181 30.5157C14.2266 31.2482 14.1109 32.1735 13.9952 32.7518C13.7639 33.7542 13.0699 34.7952 11.0651 34.7952C9.17596 34.7952 8.05789 33.7157 8.05789 32.0578V29.1663H6.10352e-05V31.4795C6.10352e-05 38.188 5.28199 40.1928 10.9109 40.1928C16.347 40.1928 20.7808 38.3422 21.5133 33.3301C21.8603 30.747 21.5904 29.0506 21.4748 28.4337C20.241 22.0723 8.82898 20.1831 7.98078 16.6747ZM105.639 16.7518C105.523 16.1735 105.562 15.5181 105.6 15.2096C105.831 14.2458 106.448 13.2048 108.337 13.2048C110.072 13.2048 111.075 14.2843 111.075 15.9036C111.075 16.4434 111.075 17.7542 111.075 17.7542H118.477V15.6723C118.477 9.19518 112.694 8.19277 108.492 8.19277C103.21 8.19277 98.8916 9.92771 98.082 14.7855C97.8892 16.0964 97.8121 17.2916 98.1591 18.7952C99.4314 24.8482 109.995 26.6217 111.537 30.4771C111.807 31.2096 111.73 32.1349 111.576 32.6747C111.345 33.6771 110.689 34.6795 108.684 34.6795C106.834 34.6795 105.677 33.6 105.677 31.9807V29.0892H97.6964V31.3639C97.6964 37.9952 102.901 40 108.492 40C113.851 40 118.284 38.1494 118.978 33.2145C119.325 30.6313 119.055 28.9735 118.94 28.3566C117.745 22.1108 106.487 20.2217 105.639 16.7518ZM173.802 33.1373L166.747 8.96386H155.605V38.6892H162.969L162.545 13.7446L170.14 38.6892H180.819V8.96386H173.417L173.802 33.1373ZM32.1543 8.96386L26.6025 38.959H34.6989L38.9013 11.1614L42.988 38.959H51.0458L45.494 8.9253H32.1543V8.96386ZM77.494 8.96386L73.7157 32.4434L69.9374 8.96386H57.6772L57.0217 38.9976H64.5398L64.7326 11.2L69.8989 38.959H77.494L82.6603 11.1614L82.8531 38.959H90.3711L89.7157 8.9253H77.494V8.96386ZM147.277 8.96386H139.682V31.1711C139.682 31.5566 139.682 31.9807 139.605 32.3277C139.451 33.0602 138.834 34.5253 136.713 34.5253C134.631 34.5253 134.015 33.0988 133.86 32.3277C133.783 32.0193 133.783 31.5566 133.783 31.1711V8.96386H126.188V30.4771C126.188 31.0169 126.227 32.1735 126.265 32.4434C126.805 38.0337 131.2 39.8843 136.713 39.8843C142.227 39.8843 146.66 38.0723 147.2 32.4434C147.239 32.1349 147.316 31.0169 147.277 30.4771V8.96386ZM199.402 22.1108V26.506H202.487V30.8627C202.487 31.2482 202.487 31.6723 202.41 32.0193C202.294 32.8289 201.523 34.2169 199.325 34.2169C197.166 34.2169 196.395 32.8289 196.28 32.0193C196.241 31.6723 196.202 31.2482 196.202 30.8627V17.1373C196.202 16.6361 196.241 16.1349 196.357 15.7108C196.511 14.9783 197.166 13.5518 199.325 13.5518C201.639 13.5518 202.178 15.0554 202.333 15.7108C202.41 16.1349 202.41 16.8675 202.41 16.8675V18.5253H209.966V17.5229C209.966 17.5229 210.005 16.4819 209.928 15.5181C209.349 9.88916 204.723 8.11566 199.402 8.11566C194.082 8.11566 189.533 9.92771 188.877 15.5181C188.8 16.0193 188.723 16.9446 188.723 17.5229V30.1301C188.723 30.6699 188.723 31.094 188.839 32.0964C189.34 37.5711 194.082 39.4988 199.402 39.4988C204.762 39.4988 209.465 37.5711 209.966 32.0964C210.043 31.094 210.082 30.6699 210.082 30.1301V22.0723H199.402V22.1108Z" fill="#575D65"/>
</g>
<defs>
<clipPath id="clip0_1_349">
<rect width="210.12" height="48" fill="white"/>
</clipPath>
</defs>
</svg>
