<svg width="211" height="32" viewBox="0 0 211 32" fill="none" xmlns="http://www.w3.org/2000/svg">
<g clip-path="url(#clip0_1_145)">
<path d="M7.98077 8.6747C7.82655 8.05783 7.86511 7.44097 7.94221 7.09398C8.13498 6.13012 8.79041 5.08916 10.6796 5.08916C12.4531 5.08916 13.4555 6.16868 13.4555 7.82651C13.4555 8.36627 13.4555 9.67711 13.4555 9.67711H20.935V7.55663C20.935 1.04097 15.0362 0 10.7952 0C5.47474 0 1.11812 1.7735 0.308479 6.66988C0.0771539 8.01928 0.0386 9.21446 0.385588 10.7181C1.69643 16.8482 12.3759 18.6217 13.9181 22.5157C14.2266 23.2482 14.1109 24.1735 13.9952 24.7518C13.7639 25.7542 13.0699 26.7952 11.0651 26.7952C9.17595 26.7952 8.05788 25.7157 8.05788 24.0578V21.1663H4.57764e-05V23.4795C4.57764e-05 30.188 5.28197 32.1928 10.9109 32.1928C16.347 32.1928 20.7808 30.3422 21.5133 25.3301C21.8603 22.747 21.5904 21.0506 21.4747 20.4337C20.241 14.0723 8.82896 12.1831 7.98077 8.6747ZM105.639 8.75181C105.523 8.17349 105.561 7.51807 105.6 7.20964C105.831 6.24578 106.448 5.20482 108.337 5.20482C110.072 5.20482 111.075 6.28434 111.075 7.90361C111.075 8.44337 111.075 9.75422 111.075 9.75422H118.477V7.67229C118.477 1.19518 112.694 0.192771 108.492 0.192771C103.21 0.192771 98.8916 1.92771 98.082 6.78554C97.8892 8.09639 97.8121 9.29157 98.1591 10.7952C99.4314 16.8482 109.995 18.6217 111.537 22.4771C111.807 23.2096 111.73 24.1349 111.576 24.6747C111.345 25.6771 110.689 26.6795 108.684 26.6795C106.834 26.6795 105.677 25.6 105.677 23.9807V21.0892H97.6964V23.3639C97.6964 29.9952 102.901 32 108.492 32C113.851 32 118.284 30.1494 118.978 25.2145C119.325 22.6313 119.055 20.9735 118.94 20.3566C117.745 14.1108 106.487 12.2217 105.639 8.75181ZM173.802 25.1373L166.747 0.963855H155.605V30.6892H162.969L162.545 5.74458L170.14 30.6892H180.819V0.963855H173.417L173.802 25.1373ZM32.1543 0.963855L26.6025 30.959H34.6988L38.9013 3.16144L42.988 30.959H51.0458L45.494 0.925305H32.1543V0.963855ZM77.494 0.963855L73.7157 24.4434L69.9374 0.963855H57.6772L57.0217 30.9976H64.5398L64.7326 3.2L69.8988 30.959H77.494L82.6603 3.16144L82.8531 30.959H90.3711L89.7157 0.925305H77.494V0.963855ZM147.277 0.963855H139.682V23.1711C139.682 23.5566 139.682 23.9807 139.605 24.3277C139.451 25.0602 138.834 26.5253 136.713 26.5253C134.631 26.5253 134.014 25.0988 133.86 24.3277C133.783 24.0193 133.783 23.5566 133.783 23.1711V0.963855H126.188V22.4771C126.188 23.0169 126.227 24.1735 126.265 24.4434C126.805 30.0337 131.2 31.8843 136.713 31.8843C142.227 31.8843 146.66 30.0723 147.2 24.4434C147.239 24.1349 147.316 23.0169 147.277 22.4771V0.963855ZM199.402 14.1108V18.506H202.487V22.8627C202.487 23.2482 202.487 23.6723 202.41 24.0193C202.294 24.8289 201.523 26.2169 199.325 26.2169C197.166 26.2169 196.395 24.8289 196.28 24.0193C196.241 23.6723 196.202 23.2482 196.202 22.8627V9.13735C196.202 8.63614 196.241 8.13494 196.357 7.71084C196.511 6.97831 197.166 5.55181 199.325 5.55181C201.639 5.55181 202.178 7.05542 202.333 7.71084C202.41 8.13494 202.41 8.86747 202.41 8.86747V10.5253H209.966V9.52289C209.966 9.52289 210.005 8.48193 209.928 7.51807C209.349 1.88916 204.723 0.115664 199.402 0.115664C194.082 0.115664 189.533 1.92771 188.877 7.51807C188.8 8.01928 188.723 8.94458 188.723 9.52289V22.1301C188.723 22.6699 188.723 23.094 188.839 24.0964C189.34 29.5711 194.082 31.4988 199.402 31.4988C204.761 31.4988 209.465 29.5711 209.966 24.0964C210.043 23.094 210.082 22.6699 210.082 22.1301V14.0723H199.402V14.1108Z" fill="white"/>
</g>
<defs>
<clipPath id="clip0_1_145">
<rect width="210.12" height="32" fill="white"/>
</clipPath>
</defs>
</svg>
